<svg width="478.165" height="478.165" xmlns="http://www.w3.org/2000/svg">

 <g>
  <title>background</title>
  <rect fill="none" id="canvas_background" height="402" width="582" y="-1" x="-1"/>
 </g>
 <g>
  <title>Layer 1</title>
  <path fill="#41445d" d="m442.78,0l-407.356,0c-19.565,0 -35.424,15.401 -35.424,34.288l0,409.688c0,18.828 15.859,34.189 35.424,34.189l407.337,0c19.585,0 35.404,-15.361 35.404,-34.189l0,-409.688c0,-18.887 -15.82,-34.288 -35.385,-34.288zm-297.777,400.244l-72.222,0l0,-215.832l72.223,0l0,215.832l-0.001,0zm-36.161,-245.279l-0.478,0c-24.247,0 -39.927,-16.696 -39.927,-37.337c0,-21.219 16.158,-37.337 40.863,-37.337c24.725,0 39.927,16.118 40.385,37.337c0.02,20.641 -15.64,37.337 -40.843,37.337zm296.542,245.279l-72.083,0l0,-115.437c0,-29.009 -10.599,-48.952 -36.739,-48.952c-20.063,0 -31.798,13.428 -36.958,26.458c-1.893,4.423 -2.391,10.898 -2.391,17.393l0,120.537l-72.263,0c0,0 0.916,-195.629 0,-215.832l72.263,0l0,30.603c9.484,-14.684 26.658,-35.703 65.01,-35.703c47.577,0 83.161,30.862 83.161,97.167l0,123.766zm-148.61,-184.532c0.06,-0.219 0.159,-0.438 0.418,-0.677l0,0.677l-0.418,0l0,0z" id="LinkedIn__x28_alt_x29__3_"/>
 </g>
</svg>