<svg width="512" height="512" xmlns="http://www.w3.org/2000/svg">

 <g>
  <title>background</title>
  <rect fill="none" id="canvas_background" height="402" width="582" y="-1" x="-1"/>
 </g>
 <g>
  <title>Layer 1</title>
  <path fill="#41445d" id="svg_3" d="m381,190.9l-250,0c-11,0 -20,-9 -20,-20s9,-20 20,-20l250,0c11,0 20,9 20,20s-9,20 -20,20z" class="st0"/>
  <path fill="#41445d" id="svg_5" d="m381,361.1l-250,0c-11,0 -20,-9 -20,-20s9,-20 20,-20l250,0c11,0 20,9 20,20s-9,20 -20,20z" class="st0"/>
  <path fill="#41445d" id="svg_7" d="m381,276l-250,0c-11,0 -20,-9 -20,-20s9,-20 20,-20l250,0c11,0 20,9 20,20s-9,20 -20,20z" class="st0"/>
 </g>
</svg>