<svg xmlns="http://www.w3.org/2000/svg" viewBox="0 0 622 16242"><defs><style>.cls-1{fill:#41445d;}.cls-2{fill:#fff9eb;}</style></defs><title>Asset 1</title><g id="Layer_2" data-name="Layer 2"><g id="Layer_1-2" data-name="Layer 1"><rect class="cls-1" x="344" width="278" height="16242"/><rect class="cls-2" x="309" y="13715" width="197" height="59" rx="15" ry="15"/><rect class="cls-2" x="296" y="304" width="95" height="59" rx="15" ry="15"/><rect class="cls-2" x="306" y="422" width="191" height="59" rx="15" ry="15"/><path class="cls-2" d="M542,540h80a0,0,0,0,1,0,0v59a0,0,0,0,1,0,0H542a15,15,0,0,1-15-15V555A15,15,0,0,1,542,540Z"/><rect class="cls-2" x="297" y="3000" width="134" height="59" rx="15" ry="15"/><rect class="cls-2" x="321" y="3118" width="183" height="59" rx="15" ry="15"/><rect class="cls-1" x="158" y="3059" width="407" height="59" rx="15" ry="15"/><rect class="cls-1" x="288" y="363" width="267" height="59" rx="15" ry="15"/><path class="cls-2" d="M553,4941h69a0,0,0,0,1,0,0v59a0,0,0,0,1,0,0H553a15,15,0,0,1-15-15v-29A15,15,0,0,1,553,4941Z"/><rect class="cls-2" x="297" y="5059" width="183" height="59" rx="15" ry="15"/><rect class="cls-1" x="226" y="5118" width="281" height="59" rx="15" ry="15"/><rect class="cls-1" x="107" y="5505" width="281" height="59" rx="15" ry="15"/><rect class="cls-2" y="5177" width="367" height="328" rx="15" ry="15"/><rect class="cls-2" x="282" y="5653" width="277" height="159" rx="15" ry="15"/><path class="cls-2" d="M440,8123H622a0,0,0,0,1,0,0v59a0,0,0,0,1,0,0H440a15,15,0,0,1-15-15v-29A15,15,0,0,1,440,8123Z"/><rect class="cls-2" x="286" y="8776" width="197" height="59" rx="15" ry="15"/><rect class="cls-2" x="287" y="9449" width="277" height="159" rx="15" ry="15"/><rect class="cls-1" x="228" y="8835" width="327" height="59" rx="15" ry="15"/><path class="cls-2" d="M440,11651H622a0,0,0,0,1,0,0v59a0,0,0,0,1,0,0H440a15,15,0,0,1-15-15v-29A15,15,0,0,1,440,11651Z"/><rect class="cls-2" x="279" y="11919" width="197" height="59" rx="15" ry="15"/><rect class="cls-1" x="221" y="11978" width="327" height="59" rx="15" ry="15"/><rect class="cls-2" x="235" y="12592" width="345" height="946" rx="15" ry="15"/><rect class="cls-2" x="272" y="13597" width="197" height="59" rx="15" ry="15"/><rect class="cls-1" x="79" y="13656" width="462" height="59" rx="15" ry="15"/><rect class="cls-1" x="309" y="13538" width="214" height="59" rx="15" ry="15"/></g></g></svg>